<?xml version="1.0" encoding="UTF-8" standalone="no"?>
<!-- Creator: CorelDRAW -->

<svg
   xmlns:dc="http://purl.org/dc/elements/1.1/"
   xmlns:cc="http://creativecommons.org/ns#"
   xmlns:rdf="http://www.w3.org/1999/02/22-rdf-syntax-ns#"
   xmlns:svg="http://www.w3.org/2000/svg"
   xmlns="http://www.w3.org/2000/svg"
   xmlns:xlink="http://www.w3.org/1999/xlink"
   xmlns:sodipodi="http://sodipodi.sourceforge.net/DTD/sodipodi-0.dtd"
   xmlns:inkscape="http://www.inkscape.org/namespaces/inkscape"
   xml:space="preserve"
   width="202.26234mm"
   height="135.84219mm"
   style="clip-rule:evenodd;fill-rule:evenodd;image-rendering:optimizeQuality;shape-rendering:geometricPrecision;text-rendering:geometricPrecision"
   viewBox="0 0 202.26234 135.84219"
   version="1.1"
   id="svg84"
   sodipodi:docname="car-9.svg"
   inkscape:version="0.92.3 (2405546, 2018-03-11)"><metadata
   id="metadata88"><rdf:RDF><cc:Work
       rdf:about=""><dc:format>image/svg+xml</dc:format><dc:type
         rdf:resource="http://purl.org/dc/dcmitype/StillImage" /><dc:title></dc:title></cc:Work></rdf:RDF></metadata><sodipodi:namedview
   pagecolor="#ffffff"
   bordercolor="#666666"
   borderopacity="1"
   objecttolerance="10"
   gridtolerance="10"
   guidetolerance="10"
   inkscape:pageopacity="0"
   inkscape:pageshadow="2"
   inkscape:window-width="1920"
   inkscape:window-height="1017"
   id="namedview86"
   showgrid="false"
   fit-margin-top="0"
   fit-margin-left="0"
   fit-margin-right="0"
   fit-margin-bottom="0"
   showborder="false"
   inkscape:zoom="1.6555669"
   inkscape:cx="382.22805"
   inkscape:cy="256.70966"
   inkscape:window-x="-4"
   inkscape:window-y="9"
   inkscape:window-maximized="1"
   inkscape:current-layer="svg84" />
 <defs
   id="defs32"><style
     type="text/css"
     id="style2">
   <![CDATA[
    .str0 {stroke:#1F1A17;stroke-linecap:round;stroke-linejoin:round}
    .fil3 {fill:#C2C1C1}
    .fil0 {fill:#C4BF66}
    .fil2 {fill:#E77844}
    .fil1 {fill:#FFFCC8}
    .fil4 {fill:white}
    .fil5 {fill:url(#id0)}
    .fil11 {fill:url(#id1)}
    .fil8 {fill:url(#id2)}
    .fil7 {fill:url(#id3)}
    .fil13 {fill:url(#id4)}
    .fil10 {fill:url(#id5)}
    .fil14 {fill:url(#id6)}
    .fil6 {fill:url(#id7)}
    .fil12 {fill:url(#id8)}
    .fil9 {fill:url(#id9)}
   ]]>
  </style><linearGradient
     id="id0"
     gradientUnits="userSpaceOnUse"
     x1="46.094799"
     y1="157.02299"
     x2="88.066002"
     y2="157.02299">
   <stop
   offset="0"
   style="stop-color:#1F1A17"
   id="stop4" />
   <stop
   offset="1"
   style="stop-color:#838281"
   id="stop6" />
  </linearGradient><linearGradient
     id="id1"
     gradientUnits="userSpaceOnUse"
     xlink:href="#id0"
     x1="128.026"
     y1="157.02299"
     x2="169.99699"
     y2="157.02299">
  </linearGradient><linearGradient
     id="id2"
     gradientUnits="userSpaceOnUse"
     xlink:href="#id0"
     x1="176.698"
     y1="157.02299"
     x2="218.66901"
     y2="157.02299">
  </linearGradient><linearGradient
     id="id3"
     gradientUnits="userSpaceOnUse"
     x1="64.748703"
     y1="157.02299"
     x2="69.412102"
     y2="157.02299">
   <stop
   offset="0"
   style="stop-color:#C2C1C1"
   id="stop11" />
   <stop
   offset="1"
   style="stop-color:#DEDEDD"
   id="stop13" />
  </linearGradient><linearGradient
     id="id4"
     gradientUnits="userSpaceOnUse"
     xlink:href="#id3"
     x1="146.67999"
     y1="157.02299"
     x2="151.343"
     y2="157.02299">
  </linearGradient><linearGradient
     id="id5"
     gradientUnits="userSpaceOnUse"
     xlink:href="#id3"
     x1="195.35201"
     y1="157.02299"
     x2="200.015"
     y2="157.02299">
  </linearGradient><linearGradient
     id="id6"
     gradientUnits="userSpaceOnUse"
     x1="86.1278"
     y1="103.745"
     x2="42.458801"
     y2="69.780403">
   <stop
   offset="0"
   style="stop-color:#007CC3"
   id="stop18" />
   <stop
   offset="0.231373"
   style="stop-color:#0093DD"
   id="stop20" />
   <stop
   offset="0.329412"
   style="stop-color:#0093DD"
   id="stop22" />
   <stop
   offset="0.458824"
   style="stop-color:#28166F"
   id="stop24" />
   <stop
   offset="1"
   style="stop-color:#75C5F0"
   id="stop26" />
  </linearGradient><linearGradient
     id="id7"
     gradientUnits="userSpaceOnUse"
     xlink:href="#id3"
     x1="78.2724"
     y1="157.02299"
     x2="55.888401"
     y2="157.02299">
  </linearGradient><linearGradient
     id="id8"
     gradientUnits="userSpaceOnUse"
     xlink:href="#id3"
     x1="160.203"
     y1="157.02299"
     x2="137.82001"
     y2="157.02299">
  </linearGradient><linearGradient
     id="id9"
     gradientUnits="userSpaceOnUse"
     xlink:href="#id3"
     x1="208.875"
     y1="157.02299"
     x2="186.492"
     y2="157.02299">
  </linearGradient><linearGradient
     inkscape:collect="always"
     xlink:href="#id0"
     id="linearGradient898"
     gradientUnits="userSpaceOnUse"
     x1="46.094799"
     y1="157.02299"
     x2="88.066002"
     y2="157.02299" /><linearGradient
     inkscape:collect="always"
     xlink:href="#id3"
     id="linearGradient900"
     gradientUnits="userSpaceOnUse"
     x1="64.748703"
     y1="157.02299"
     x2="69.412102"
     y2="157.02299" /></defs>
 <g
   id="Layer_x0020_1"
   transform="translate(-29.068358,-42.666)">
  <metadata
   id="CorelCorpID_0Corel-Layer" />
  <rect
   class="fil0 str0"
   x="208.946"
   y="43.166"
   width="12.7764"
   height="29.406"
   rx="6.3881998"
   ry="6.3881998"
   id="rect35"
   style="fill:#c4bf66;stroke:#1f1a17;stroke-linecap:round;stroke-linejoin:round" />
  <rect
   class="fil1"
   x="210.64"
   y="45.3596"
   width="9.2060003"
   height="21.1884"
   rx="6.3881998"
   ry="6.3881998"
   id="rect37"
   style="fill:#fffcc8" />
  <rect
   class="fil0"
   x="211.91701"
   y="46.7276"
   width="9.2060003"
   height="21.1884"
   rx="6.3881998"
   ry="6.3881998"
   id="rect39"
   style="fill:#c4bf66" />
  <path
   class="fil2 str0"
   d="m 206.185,66.0474 h 17.2836 c 1.397,0 2.54,-1.143 2.54,-2.54 v -1.7852 c 0,-1.397 -1.1517,-2.54 -2.54,-2.54 H 206.185 c -1.3883,0 -2.54,1.1517 -2.54,2.54 v 1.7852 c 0,1.3883 1.143,2.54 2.54,2.54 z"
   id="path41"
   inkscape:connector-curvature="0"
   style="fill:#e77844;stroke:#1f1a17;stroke-linecap:round;stroke-linejoin:round" />
  <rect
   class="fil0 str0"
   x="99.625198"
   y="43.166"
   width="12.7764"
   height="29.406"
   rx="6.3881998"
   ry="6.3881998"
   id="rect43"
   style="fill:#c4bf66;stroke:#1f1a17;stroke-linecap:round;stroke-linejoin:round" />
  <rect
   class="fil1"
   x="101.319"
   y="45.3596"
   width="9.2060003"
   height="21.1884"
   rx="6.3881998"
   ry="6.3881998"
   id="rect45"
   style="fill:#fffcc8" />
  <rect
   class="fil0"
   x="102.596"
   y="46.7276"
   width="9.2060003"
   height="21.1884"
   rx="6.3881998"
   ry="6.3881998"
   id="rect47"
   style="fill:#c4bf66" />
  <path
   class="fil2 str0"
   d="m 123.431,66.0474 h 63.0036 c 1.397,0 3.0247,-1.2298 2.54,-2.54 l -2.54,-6.8652 c -0.4847,-1.3102 -1.1531,-2.54 -2.54,-2.54 H 125.971 c -1.3869,0 -2.0588,1.2393 -2.54,2.54 l -2.54,6.8652 c -0.4812,1.3008 1.143,2.54 2.54,2.54 z"
   id="path49"
   inkscape:connector-curvature="0"
   style="fill:#e77844;stroke:#1f1a17;stroke-linecap:round;stroke-linejoin:round" />
  <path
   class="fil2 str0"
   d="m 96.8646,66.0474 h 17.2836 c 1.397,0 2.54,-1.143 2.54,-2.54 v -1.7852 c 0,-1.397 -1.1517,-2.54 -2.54,-2.54 H 96.8646 c -1.3883,0 -2.54,1.1517 -2.54,2.54 v 1.7852 c 0,1.3883 1.143,2.54 2.54,2.54 z"
   id="path51"
   inkscape:connector-curvature="0"
   style="fill:#e77844;stroke:#1f1a17;stroke-linecap:round;stroke-linejoin:round" />
  <path
   class="fil3 str0"
   d="m 33.1068,137.448 h 195.084 c 1.397,0 2.54,-3.9369 2.54,-2.54 v 0.7548 c 0,1.3969 -1.1437,-2.54 -2.54,-2.54 H 33.1068 c -1.3963,0 -2.54,3.9364 -2.54,2.54 v -0.7548 c 0,-1.3964 1.143,2.54 2.54,2.54 z"
   id="path53"
   inkscape:connector-curvature="0"
   style="fill:#c2c1c1;stroke:#1f1a17;stroke-linecap:round;stroke-linejoin:round" />
  <path
   class="fil2 str0"
   d="m 38.1868,155.487 h 184.924 c 1.397,0 1.9933,-1.2544 2.54,-2.54 l 5.08,-11.9452 c 0.5467,-1.2856 -1.1434,-2.54 -2.54,-2.54 H 33.1068 c -1.3966,0 -3.0866,1.2548 -2.54,2.54 l 5.08,11.9452 c 0.5464,1.2848 1.143,2.54 2.54,2.54 z"
   id="path55"
   inkscape:connector-curvature="0"
   style="fill:#e77844;stroke:#1f1a17;stroke-linecap:round;stroke-linejoin:round" />
  <path
   class="fil4 str0"
   d="m 124.26,153.875 c 1.5483,-12.2907 12.0414,-21.8011 24.7517,-21.8013 11.8814,2e-4 21.8252,8.3114 24.3361,19.4353 2.5108,-11.1239 12.4542,-19.4351 24.3359,-19.4353 12.7099,2e-4 23.2033,9.5106 24.7516,21.8013 h 5.3596 v 3.1478 h -30.1112 -48.672 -81.9312 -33.568 v -3.1478 h 8.8163 c 1.5483,-12.2907 12.0414,-21.8011 24.7517,-21.8013 12.7099,2e-4 23.2033,9.5106 24.7516,21.8013 z"
   id="path57"
   inkscape:connector-curvature="0"
   style="fill:#ffffff;stroke:#1f1a17;stroke-linecap:round;stroke-linejoin:round" />
  <path
   class="fil5 str0"
   d="m 88.0655,157.023 c 0,11.5878 -9.3973,20.9852 -20.9851,20.9852 -11.5878,0 -20.9851,-9.3974 -20.9851,-20.9852 0,-11.5878 9.3973,-20.9851 20.9851,-20.9851 11.5878,0 20.9851,9.3973 20.9851,20.9851 z"
   id="path59"
   inkscape:connector-curvature="0"
   style="fill:url(#linearGradient898);stroke:#1f1a17;stroke-linecap:round;stroke-linejoin:round" />
  <path
   class="fil6 str0"
   d="m 78.2724,157.023 c 0,6.1802 -5.0119,11.1921 -11.192,11.1921 -6.1802,0 -11.1921,-5.0119 -11.1921,-11.1921 0,-6.1801 5.0119,-11.192 11.1921,-11.192 6.1801,0 11.192,5.0119 11.192,11.192 z"
   id="path61"
   inkscape:connector-curvature="0"
   style="fill:url(#id7);stroke:#1f1a17;stroke-linecap:round;stroke-linejoin:round" />
  <path
   class="fil7 str0"
   d="m 69.4121,157.023 c 0,1.2876 -1.0442,2.3317 -2.3317,2.3317 -1.2876,0 -2.3317,-1.0441 -2.3317,-2.3317 0,-1.2875 1.0441,-2.3317 2.3317,-2.3317 1.2875,0 2.3317,1.0442 2.3317,2.3317 z"
   id="path63"
   inkscape:connector-curvature="0"
   style="fill:url(#linearGradient900);stroke:#1f1a17;stroke-linecap:round;stroke-linejoin:round" />
  <path
   class="fil8 str0"
   d="m 218.669,157.023 c 0,11.5878 -9.3973,20.9852 -20.9851,20.9852 -11.5878,0 -20.9851,-9.3974 -20.9851,-20.9852 0,-11.5878 9.3973,-20.9851 20.9851,-20.9851 11.5878,0 20.9851,9.3973 20.9851,20.9851 z"
   id="path65"
   inkscape:connector-curvature="0"
   style="fill:url(#id2);stroke:#1f1a17;stroke-linecap:round;stroke-linejoin:round" />
  <path
   class="fil9 str0"
   d="m 208.876,157.023 c 0,6.1802 -5.0119,11.1921 -11.192,11.1921 -6.1802,0 -11.1921,-5.0119 -11.1921,-11.1921 0,-6.1801 5.0119,-11.192 11.1921,-11.192 6.1801,0 11.192,5.0119 11.192,11.192 z"
   id="path67"
   inkscape:connector-curvature="0"
   style="fill:url(#id9);stroke:#1f1a17;stroke-linecap:round;stroke-linejoin:round" />
  <path
   class="fil10 str0"
   d="m 200.015,157.023 c 0,1.2876 -1.0442,2.3317 -2.3317,2.3317 -1.2876,0 -2.3317,-1.0441 -2.3317,-2.3317 0,-1.2875 1.0441,-2.3317 2.3317,-2.3317 1.2875,0 2.3317,1.0442 2.3317,2.3317 z"
   id="path69"
   inkscape:connector-curvature="0"
   style="fill:url(#id5);stroke:#1f1a17;stroke-linecap:round;stroke-linejoin:round" />
  <path
   class="fil11 str0"
   d="m 169.997,157.023 c 0,11.5878 -9.3973,20.9852 -20.9851,20.9852 -11.5878,0 -20.9851,-9.3974 -20.9851,-20.9852 0,-11.5878 9.3973,-20.9851 20.9851,-20.9851 11.5878,0 20.9851,9.3973 20.9851,20.9851 z"
   id="path71"
   inkscape:connector-curvature="0"
   style="fill:url(#id1);stroke:#1f1a17;stroke-linecap:round;stroke-linejoin:round" />
  <path
   class="fil12 str0"
   d="m 160.204,157.023 c 0,6.1802 -5.0119,11.1921 -11.192,11.1921 -6.1802,0 -11.1921,-5.0119 -11.1921,-11.1921 0,-6.1801 5.0119,-11.192 11.1921,-11.192 6.1801,0 11.192,5.0119 11.192,11.192 z"
   id="path73"
   inkscape:connector-curvature="0"
   style="fill:url(#id8);stroke:#1f1a17;stroke-linecap:round;stroke-linejoin:round" />
  <path
   class="fil13 str0"
   d="m 151.343,157.023 c 0,1.2876 -1.0442,2.3317 -2.3317,2.3317 -1.2876,0 -2.3317,-1.0441 -2.3317,-2.3317 0,-1.2875 1.0441,-2.3317 2.3317,-2.3317 1.2875,0 2.3317,1.0442 2.3317,2.3317 z"
   id="path75"
   inkscape:connector-curvature="0"
   style="fill:url(#id4);stroke:#1f1a17;stroke-linecap:round;stroke-linejoin:round" />
  <path
   class="fil2 str0"
   d="m 94.0668,132.175 h 134.124 c 1.397,0 2.54,-1.143 2.54,-2.54 V 66.8898 c 0,-1.397 -1.1472,-2.54 -2.54,-2.54 H 94.0668 c -1.3928,0 -2.54,1.1472 -2.54,2.54 v 62.7452 c 0,1.3928 1.143,2.54 2.54,2.54 z"
   id="path77"
   inkscape:connector-curvature="0"
   style="fill:#e77844;stroke:#1f1a17;stroke-linecap:round;stroke-linejoin:round" />
  <path
   class="fil2 str0"
   d="m 32.1596,132.175 h 55.3836 c 1.397,0 2.54,-1.143 2.54,-2.54 V 66.8898 c 0,-1.397 -1.1613,-2.7144 -2.54,-2.54 l -40.1436,5.08 c -1.3787,0.1744 -2.185,1.1965 -2.54,2.54 l -15.24,57.6652 c -0.355,1.3435 1.143,2.54 2.54,2.54 z"
   id="path79"
   inkscape:connector-curvature="0"
   style="fill:#e77844;stroke:#1f1a17;stroke-linecap:round;stroke-linejoin:round" />
  <path
   class="fil14 str0"
   d="m 44.7265,103.321 39.4066,0.2664 c 1.1611,0.008 2.1111,-0.95 2.1111,-2.1111 V 72.1855 c 0,-1.1612 -0.9663,-2.256 -2.1111,-2.1112 l -33.3655,4.2223 c -1.1445,0.1448 -1.8382,0.9907 -2.1111,2.1111 l -6.0412,24.8022 c -0.2728,1.1204 0.95,2.1034 2.1112,2.1111 z"
   id="path81"
   inkscape:connector-curvature="0"
   style="fill:url(#id6);stroke:#1f1a17;stroke-linecap:round;stroke-linejoin:round" />
 </g>
</svg>