<svg xmlns="http://www.w3.org/2000/svg" xmlns:svg="http://www.w3.org/2000/svg" xmlns:xlink="http://www.w3.org/1999/xlink" style="clip-rule:evenodd;fill-rule:evenodd;image-rendering:optimizeQuality;shape-rendering:geometricPrecision;text-rendering:geometricPrecision" id="svg84" width="764.456" height="513.419" version="1.1" viewBox="0 0 202.262 135.842" xml:space="preserve"><metadata id="metadata88"/><defs id="defs32"><style id="style2" type="text/css">.str0{stroke:#1f1a17;stroke-linecap:round;stroke-linejoin:round}.fil3{fill:#c2c1c1}.fil0{fill:#c4bf66}.fil2{fill:#e77844}.fil1{fill:#fffcc8}.fil4{fill:#fff}.fil5{fill:url(#id0)}.fil11{fill:url(#id1)}.fil8{fill:url(#id2)}.fil7{fill:url(#id3)}.fil13{fill:url(#id4)}.fil10{fill:url(#id5)}.fil14{fill:url(#id6)}.fil6{fill:url(#id7)}.fil12{fill:url(#id8)}.fil9{fill:url(#id9)}</style><linearGradient id="id0" x1="46.095" x2="88.066" y1="157.023" y2="157.023" gradientUnits="userSpaceOnUse"><stop style="stop-color:#1f1a17" id="stop4" offset="0"/><stop style="stop-color:#838281" id="stop6" offset="1"/></linearGradient><linearGradient id="id1" x1="128.026" x2="169.997" y1="157.023" y2="157.023" gradientUnits="userSpaceOnUse" xlink:href="#id0"/><linearGradient id="id2" x1="176.698" x2="218.669" y1="157.023" y2="157.023" gradientUnits="userSpaceOnUse" xlink:href="#id0"/><linearGradient id="id3" x1="64.749" x2="69.412" y1="157.023" y2="157.023" gradientUnits="userSpaceOnUse"><stop style="stop-color:#c2c1c1" id="stop11" offset="0"/><stop style="stop-color:#dededd" id="stop13" offset="1"/></linearGradient><linearGradient id="id4" x1="146.68" x2="151.343" y1="157.023" y2="157.023" gradientUnits="userSpaceOnUse" xlink:href="#id3"/><linearGradient id="id5" x1="195.352" x2="200.015" y1="157.023" y2="157.023" gradientUnits="userSpaceOnUse" xlink:href="#id3"/><linearGradient id="id6" x1="86.128" x2="42.459" y1="103.745" y2="69.78" gradientUnits="userSpaceOnUse"><stop style="stop-color:#007cc3" id="stop18" offset="0"/><stop style="stop-color:#0093dd" id="stop20" offset=".231"/><stop style="stop-color:#0093dd" id="stop22" offset=".329"/><stop style="stop-color:#28166f" id="stop24" offset=".459"/><stop style="stop-color:#75c5f0" id="stop26" offset="1"/></linearGradient><linearGradient id="id7" x1="78.272" x2="55.888" y1="157.023" y2="157.023" gradientUnits="userSpaceOnUse" xlink:href="#id3"/><linearGradient id="id8" x1="160.203" x2="137.82" y1="157.023" y2="157.023" gradientUnits="userSpaceOnUse" xlink:href="#id3"/><linearGradient id="id9" x1="208.875" x2="186.492" y1="157.023" y2="157.023" gradientUnits="userSpaceOnUse" xlink:href="#id3"/><linearGradient id="linearGradient898" x1="46.095" x2="88.066" y1="157.023" y2="157.023" gradientUnits="userSpaceOnUse" xlink:href="#id0"/><linearGradient id="linearGradient900" x1="64.749" x2="69.412" y1="157.023" y2="157.023" gradientUnits="userSpaceOnUse" xlink:href="#id3"/></defs><g id="Layer_x0020_1" transform="translate(-29.068358,-42.666)"><metadata id="CorelCorpID_0Corel-Layer"/><rect id="rect35" width="12.776" height="29.406" x="208.946" y="43.166" class="fil0 str0" rx="6.388" ry="6.388" style="fill:#c4bf66;stroke:#1f1a17;stroke-linecap:round;stroke-linejoin:round"/><rect id="rect37" width="9.206" height="21.188" x="210.64" y="45.36" class="fil1" rx="6.388" ry="6.388" style="fill:#fffcc8"/><rect id="rect39" width="9.206" height="21.188" x="211.917" y="46.728" class="fil0" rx="6.388" ry="6.388" style="fill:#c4bf66"/><path id="path41" d="m 206.185,66.0474 h 17.2836 c 1.397,0 2.54,-1.143 2.54,-2.54 v -1.7852 c 0,-1.397 -1.1517,-2.54 -2.54,-2.54 H 206.185 c -1.3883,0 -2.54,1.1517 -2.54,2.54 v 1.7852 c 0,1.3883 1.143,2.54 2.54,2.54 z" class="fil2 str0" style="fill:#e77844;stroke:#1f1a17;stroke-linecap:round;stroke-linejoin:round"/><rect id="rect43" width="12.776" height="29.406" x="99.625" y="43.166" class="fil0 str0" rx="6.388" ry="6.388" style="fill:#c4bf66;stroke:#1f1a17;stroke-linecap:round;stroke-linejoin:round"/><rect id="rect45" width="9.206" height="21.188" x="101.319" y="45.36" class="fil1" rx="6.388" ry="6.388" style="fill:#fffcc8"/><rect id="rect47" width="9.206" height="21.188" x="102.596" y="46.728" class="fil0" rx="6.388" ry="6.388" style="fill:#c4bf66"/><path id="path49" d="m 123.431,66.0474 h 63.0036 c 1.397,0 3.0247,-1.2298 2.54,-2.54 l -2.54,-6.8652 c -0.4847,-1.3102 -1.1531,-2.54 -2.54,-2.54 H 125.971 c -1.3869,0 -2.0588,1.2393 -2.54,2.54 l -2.54,6.8652 c -0.4812,1.3008 1.143,2.54 2.54,2.54 z" class="fil2 str0" style="fill:#e77844;stroke:#1f1a17;stroke-linecap:round;stroke-linejoin:round"/><path id="path51" d="m 96.8646,66.0474 h 17.2836 c 1.397,0 2.54,-1.143 2.54,-2.54 v -1.7852 c 0,-1.397 -1.1517,-2.54 -2.54,-2.54 H 96.8646 c -1.3883,0 -2.54,1.1517 -2.54,2.54 v 1.7852 c 0,1.3883 1.143,2.54 2.54,2.54 z" class="fil2 str0" style="fill:#e77844;stroke:#1f1a17;stroke-linecap:round;stroke-linejoin:round"/><path id="path53" d="m 33.1068,137.448 h 195.084 c 1.397,0 2.54,-3.9369 2.54,-2.54 v 0.7548 c 0,1.3969 -1.1437,-2.54 -2.54,-2.54 H 33.1068 c -1.3963,0 -2.54,3.9364 -2.54,2.54 v -0.7548 c 0,-1.3964 1.143,2.54 2.54,2.54 z" class="fil3 str0" style="fill:#c2c1c1;stroke:#1f1a17;stroke-linecap:round;stroke-linejoin:round"/><path id="path55" d="m 38.1868,155.487 h 184.924 c 1.397,0 1.9933,-1.2544 2.54,-2.54 l 5.08,-11.9452 c 0.5467,-1.2856 -1.1434,-2.54 -2.54,-2.54 H 33.1068 c -1.3966,0 -3.0866,1.2548 -2.54,2.54 l 5.08,11.9452 c 0.5464,1.2848 1.143,2.54 2.54,2.54 z" class="fil2 str0" style="fill:#e77844;stroke:#1f1a17;stroke-linecap:round;stroke-linejoin:round"/><path id="path57" d="m 124.26,153.875 c 1.5483,-12.2907 12.0414,-21.8011 24.7517,-21.8013 11.8814,2e-4 21.8252,8.3114 24.3361,19.4353 2.5108,-11.1239 12.4542,-19.4351 24.3359,-19.4353 12.7099,2e-4 23.2033,9.5106 24.7516,21.8013 h 5.3596 v 3.1478 h -30.1112 -48.672 -81.9312 -33.568 v -3.1478 h 8.8163 c 1.5483,-12.2907 12.0414,-21.8011 24.7517,-21.8013 12.7099,2e-4 23.2033,9.5106 24.7516,21.8013 z" class="fil4 str0" style="fill:#fff;stroke:#1f1a17;stroke-linecap:round;stroke-linejoin:round"/><path id="path59" d="m 88.0655,157.023 c 0,11.5878 -9.3973,20.9852 -20.9851,20.9852 -11.5878,0 -20.9851,-9.3974 -20.9851,-20.9852 0,-11.5878 9.3973,-20.9851 20.9851,-20.9851 11.5878,0 20.9851,9.3973 20.9851,20.9851 z" class="fil5 str0" style="fill:url(#linearGradient898);stroke:#1f1a17;stroke-linecap:round;stroke-linejoin:round"/><path id="path61" d="m 78.2724,157.023 c 0,6.1802 -5.0119,11.1921 -11.192,11.1921 -6.1802,0 -11.1921,-5.0119 -11.1921,-11.1921 0,-6.1801 5.0119,-11.192 11.1921,-11.192 6.1801,0 11.192,5.0119 11.192,11.192 z" class="fil6 str0" style="fill:url(#id7);stroke:#1f1a17;stroke-linecap:round;stroke-linejoin:round"/><path id="path63" d="m 69.4121,157.023 c 0,1.2876 -1.0442,2.3317 -2.3317,2.3317 -1.2876,0 -2.3317,-1.0441 -2.3317,-2.3317 0,-1.2875 1.0441,-2.3317 2.3317,-2.3317 1.2875,0 2.3317,1.0442 2.3317,2.3317 z" class="fil7 str0" style="fill:url(#linearGradient900);stroke:#1f1a17;stroke-linecap:round;stroke-linejoin:round"/><path id="path65" d="m 218.669,157.023 c 0,11.5878 -9.3973,20.9852 -20.9851,20.9852 -11.5878,0 -20.9851,-9.3974 -20.9851,-20.9852 0,-11.5878 9.3973,-20.9851 20.9851,-20.9851 11.5878,0 20.9851,9.3973 20.9851,20.9851 z" class="fil8 str0" style="fill:url(#id2);stroke:#1f1a17;stroke-linecap:round;stroke-linejoin:round"/><path id="path67" d="m 208.876,157.023 c 0,6.1802 -5.0119,11.1921 -11.192,11.1921 -6.1802,0 -11.1921,-5.0119 -11.1921,-11.1921 0,-6.1801 5.0119,-11.192 11.1921,-11.192 6.1801,0 11.192,5.0119 11.192,11.192 z" class="fil9 str0" style="fill:url(#id9);stroke:#1f1a17;stroke-linecap:round;stroke-linejoin:round"/><path id="path69" d="m 200.015,157.023 c 0,1.2876 -1.0442,2.3317 -2.3317,2.3317 -1.2876,0 -2.3317,-1.0441 -2.3317,-2.3317 0,-1.2875 1.0441,-2.3317 2.3317,-2.3317 1.2875,0 2.3317,1.0442 2.3317,2.3317 z" class="fil10 str0" style="fill:url(#id5);stroke:#1f1a17;stroke-linecap:round;stroke-linejoin:round"/><path id="path71" d="m 169.997,157.023 c 0,11.5878 -9.3973,20.9852 -20.9851,20.9852 -11.5878,0 -20.9851,-9.3974 -20.9851,-20.9852 0,-11.5878 9.3973,-20.9851 20.9851,-20.9851 11.5878,0 20.9851,9.3973 20.9851,20.9851 z" class="fil11 str0" style="fill:url(#id1);stroke:#1f1a17;stroke-linecap:round;stroke-linejoin:round"/><path id="path73" d="m 160.204,157.023 c 0,6.1802 -5.0119,11.1921 -11.192,11.1921 -6.1802,0 -11.1921,-5.0119 -11.1921,-11.1921 0,-6.1801 5.0119,-11.192 11.1921,-11.192 6.1801,0 11.192,5.0119 11.192,11.192 z" class="fil12 str0" style="fill:url(#id8);stroke:#1f1a17;stroke-linecap:round;stroke-linejoin:round"/><path id="path75" d="m 151.343,157.023 c 0,1.2876 -1.0442,2.3317 -2.3317,2.3317 -1.2876,0 -2.3317,-1.0441 -2.3317,-2.3317 0,-1.2875 1.0441,-2.3317 2.3317,-2.3317 1.2875,0 2.3317,1.0442 2.3317,2.3317 z" class="fil13 str0" style="fill:url(#id4);stroke:#1f1a17;stroke-linecap:round;stroke-linejoin:round"/><path id="path77" d="m 94.0668,132.175 h 134.124 c 1.397,0 2.54,-1.143 2.54,-2.54 V 66.8898 c 0,-1.397 -1.1472,-2.54 -2.54,-2.54 H 94.0668 c -1.3928,0 -2.54,1.1472 -2.54,2.54 v 62.7452 c 0,1.3928 1.143,2.54 2.54,2.54 z" class="fil2 str0" style="fill:#e77844;stroke:#1f1a17;stroke-linecap:round;stroke-linejoin:round"/><path id="path79" d="m 32.1596,132.175 h 55.3836 c 1.397,0 2.54,-1.143 2.54,-2.54 V 66.8898 c 0,-1.397 -1.1613,-2.7144 -2.54,-2.54 l -40.1436,5.08 c -1.3787,0.1744 -2.185,1.1965 -2.54,2.54 l -15.24,57.6652 c -0.355,1.3435 1.143,2.54 2.54,2.54 z" class="fil2 str0" style="fill:#e77844;stroke:#1f1a17;stroke-linecap:round;stroke-linejoin:round"/><path id="path81" d="m 44.7265,103.321 39.4066,0.2664 c 1.1611,0.008 2.1111,-0.95 2.1111,-2.1111 V 72.1855 c 0,-1.1612 -0.9663,-2.256 -2.1111,-2.1112 l -33.3655,4.2223 c -1.1445,0.1448 -1.8382,0.9907 -2.1111,2.1111 l -6.0412,24.8022 c -0.2728,1.1204 0.95,2.1034 2.1112,2.1111 z" class="fil14 str0" style="fill:url(#id6);stroke:#1f1a17;stroke-linecap:round;stroke-linejoin:round"/></g></svg>